<?xml version="1.0" encoding="UTF-8"?>
<!DOCTYPE svg PUBLIC "-//W3C//DTD SVG 1.1//EN" "http://www.w3.org/Graphics/SVG/1.1/DTD/svg11.dtd">
<!-- Creator: CorelDRAW 2021 (64-Bit) -->
<svg xmlns="http://www.w3.org/2000/svg" xml:space="preserve" width="2in" height="2in" version="1.1" style="shape-rendering:geometricPrecision; text-rendering:geometricPrecision; image-rendering:optimizeQuality; fill-rule:evenodd; clip-rule:evenodd"
viewBox="0 0 2000 2000"
 xmlns:xlink="http://www.w3.org/1999/xlink"
 xmlns:xodm="http://www.corel.com/coreldraw/odm/2003">
 <defs>
  <style type="text/css">
   <![CDATA[
    .fil0 {fill:#1B1F23}
   ]]>
  </style>
 </defs>
 <g id="Layer_x0020_1">
  <metadata id="CorelCorpID_0Corel-Layer"/>
  <path class="fil0" d="M383.79 1140.85c-5.98,-25.67 -12.82,-61.26 -14.68,-88.83l-3.87 -65.46c0.03,-14.86 -0.26,-36.16 1.68,-51.06 0.77,-5.91 0.78,-10.26 1.55,-16.04 6.89,-52.2 18.13,-86.93 41.37,-133.43 11.48,-22.97 31.97,-53.15 49.38,-72.69 3.26,-3.66 4.35,-6.2 8.56,-9.02l-7.39 -22.88c-2.35,-8.25 -4.31,-16.17 -6.05,-24.22 -3.72,-17.21 -3.49,-25.21 -5.69,-40.21 -0.76,-5.2 -0.04,-10.02 -0.46,-15.17 -3.69,-44.66 6.83,-93.78 18.73,-132.74 2.44,-8 5.05,-14.71 7.8,-22.48 2.98,-8.39 2.06,-9.98 20.39,-9.88 11.61,0.06 20.17,0.27 29.61,1.66 18.36,2.69 34.1,6.32 49.87,11.65 22.35,7.56 44.71,15.5 65.71,26.09 7.09,3.57 13.07,6.54 20.18,10.09 14.04,7.02 26.49,14.32 39.67,21.86 6.2,3.54 12.61,7.49 18.8,11.48l27.93 17.97c4.53,3.11 4.3,4.04 10.53,2.39 68.07,-18 113.48,-24.97 185.04,-30.87l59.51 -2.01 58.63 1.93c45.11,1.29 144.01,17.72 184.66,30.2 5.8,1.78 6.26,2.87 11.03,-0.41 62.87,-43.21 144.85,-88.32 221.81,-100.5 8.19,-1.3 34.86,-2.52 43.73,-0.87 7,1.3 5.74,1.76 7.92,7.71 11,30.12 21.84,65.5 24.87,98.17 1.18,12.69 4.14,47.93 2.6,58.09l-2.22 28.06c-1.37,10.11 -2.69,17.94 -4.19,27.06 -3.72,22.5 -11.09,36.69 -13.69,47.84 4.91,3.29 16.81,18.39 21.07,23.85 19.34,24.78 38.55,56.78 50.35,85.39 18.99,46.01 31.14,97.5 31.11,150.53 -0.06,90.74 -11.31,188.69 -50.46,266.93l-14.77 28.39c-1.24,2.54 0.27,-1.01 -1.18,2.54 -1.09,0.85 -12.04,18.07 -14.05,21.1l-19.87 26.03c-2,2.24 -2.39,3.23 -4.39,5.37l-8.78 9.77c-33.57,33.93 -63.4,56.94 -106.87,78.68 -52.04,26.02 -109.97,43.25 -169.4,53.26 -13.99,2.36 -52.76,8.92 -65.3,8.92 1.01,3.77 4.01,5.48 6.59,8.06 3.11,3.1 4.69,4.54 7.5,8.13 16.89,21.61 22.39,29.06 34.06,58.71 10.77,27.39 18.28,68 18.26,105.76l-0.98 276.37c-0.04,27.15 11.78,48.39 40.18,52.59 24.38,3.61 50.06,-7.98 73.24,-17.3l85.8 -38.22c65.5,-32.75 112.05,-64.17 169.93,-108.39l66.66 -57.37c10.97,-11.03 35.95,-34.91 45.93,-46.85 2.51,-3 5.19,-4.94 7.76,-7.87 1.71,-1.94 1.72,-2.44 3.43,-4.37 25.02,-28.39 33.7,-37.9 59.53,-72.31 14.9,-19.85 23.98,-33.84 37.58,-54.21 4.36,-6.53 7.72,-12.48 12.11,-19.15 22.71,-34.56 36.34,-64.99 54.11,-100.19l36.13 -87.89c5.28,-13.23 21.44,-68.03 22.46,-70.31l8.87 -36.05c10.46,-50.64 12.67,-61.35 19.87,-113.92 3.25,-23.75 4.69,-47.61 5.41,-71.74 0.13,-4.45 0.83,-5.28 1,-9.28l0 -65.43c-0.36,-17.1 -1.14,-33.35 -2.66,-44.67 -0.96,-7.14 -0.6,-13.76 -1.52,-20.94 -1.65,-12.96 -2.89,-26.82 -4.78,-40.14 -7.66,-53.99 -16.79,-96.03 -31.5,-147.22l-10.68 -34.24c-7.7,-22.44 -21.28,-59.01 -30.91,-80.41l-21.47 -45.91c-2.52,-5.05 -4.84,-9.65 -7.48,-14.98l-15.39 -28.56c-15.11,-25.38 -25.96,-44.27 -42.75,-69.56 -14.18,-21.36 -59.84,-82.69 -77.67,-101.04l-65.55 -68.24 -35.54 -31.83c-3.96,-3.78 -8.65,-6.73 -12.45,-10.98l-11.49 -9.02c-4.29,-3.51 -8,-6.59 -12.5,-9.97 -8.59,-6.46 -16.25,-12.93 -25.03,-18.91l-25.76 -18.19c-22.4,-16.31 -69.59,-44.7 -95.48,-57.84l-52.06 -26.07c-2.82,-1.35 -4.69,-1.89 -7.5,-3.24l-111.85 -42.45c-58.65,-19.71 -120.3,-30.03 -182.19,-38.51 -14.26,-1.95 -30.36,-2.28 -40.33,-3.61 -18.31,-2.46 -56.39,-2.65 -78.06,-2.67l-1.13 0 -1.09 0 -1.06 0 -1.03 0 -0.99 0 -0.96 0 -0.91 0c-93.01,0 -216.33,18.81 -302.88,49.67l-32.7 11.25c-22.43,8 -71.54,28.24 -93.14,39.67 -23.66,12.51 -39.1,19.12 -64.28,34.35 -10.33,6.25 -20.2,12.33 -30.41,18.43 -17.04,10.17 -41.86,28.22 -58.63,40 -23.82,16.72 -59.26,46.87 -82.28,67.14 -14.35,12.64 -43.24,41.59 -55.19,55.16l-41.48 46.41c-22,24.62 -54.19,72.26 -72.81,100.03 -3.51,5.23 -6.51,10.19 -9.78,15.62 -30.66,50.94 -44.15,78.37 -67.23,130.03 -20.61,46.13 -44.06,119.59 -54.61,168.05 -1.55,7.1 -2.72,13.43 -4.31,20.09l-16.33 107.7c-3.96,31.01 -4.17,87.74 -4.18,118.4l0 1.44c0,15.33 3.5,85.17 6.83,93.74 0,16.38 12.51,81.2 15.69,96.62 10.2,49.41 22.43,85.47 38.39,131.53l42.59 99.01c3.24,6.48 6.41,13.14 9.75,19.54l20.22 36.43c3.52,6.31 6.85,11.54 10.63,17.69l57.19 84.41c17.89,23.85 32.32,40.09 50.93,62.35l27.3 29.34c9.81,9.77 18.83,19.24 28.79,28.82l40.6 36.56c1.87,1.58 2.39,1.74 4.34,3.47 12.13,10.8 34.44,28.07 47.27,37.69l67.2 46.08c5.8,3.47 11.36,7.22 17.44,10.89 5.99,3.61 12,7.18 17.81,10.51 36.37,20.8 75.82,39.98 114.62,56.28 7.03,2.95 13.66,5.44 20.24,8.09l41.45 15.19c7.95,2.82 15.52,2.57 25.82,2.57 16.6,-0 31.19,-8.94 38.08,-18.56 9.5,-13.26 9.74,-24.49 9.74,-46.91 0,-19.59 -0.98,-35.92 -0.98,-55.66 0,-38.09 0,-76.17 0,-114.26 -6.48,0.14 -17.06,2.82 -23.6,3.74 -8.5,1.19 -15.43,2.35 -24.16,3.18 -42.06,4 -86.17,7.05 -128.44,-0.64 -36.89,-6.71 -70.11,-17.81 -98.5,-39.2 -17.94,-13.52 -21.33,-17.56 -34.65,-33.71 -18.46,-22.37 -23.07,-43.64 -33.1,-63.58 -13.91,-27.69 -36.96,-69.06 -57.72,-92.67 -36.17,-41.13 -28.87,-25.41 -68.02,-56 -15.69,-12.26 -32.13,-35.68 2.41,-43.34 8.03,-1.78 16.46,-2 26.32,-2 36.21,-0 60.4,12.52 82.24,27.14 20.09,13.45 28.56,23.48 43.01,39.02 15.9,17.11 27.15,37.09 40.37,56.3 16.11,23.39 38.93,45.44 62.7,60.35 29.46,18.48 67.62,29.42 109.6,28.16 28.83,-0.86 64.85,-9.53 90.52,-19.83 22.98,-9.23 12.6,-0.49 20.57,-34.11 3.57,-15.06 7.76,-28.14 13.31,-41.38 9.87,-23.56 17.19,-32.68 31.26,-50.78 4.81,-6.19 12.01,-10.36 13.26,-15.06 -26.18,0 -95.11,-14.7 -120.84,-20.76l-37.24 -10.61c-98.49,-33.13 -174.39,-80.59 -229.92,-173.4 -1.7,-2.85 -2.7,-4.42 -4.24,-7.48 -7.46,-14.71 -12.29,-21.56 -19.59,-39.98 -9.2,-23.24 -17.63,-45.87 -23.71,-71.99z"/>
 </g>
</svg>
