<?xml version="1.0" encoding="UTF-8"?>
<!DOCTYPE svg PUBLIC "-//W3C//DTD SVG 1.1//EN" "http://www.w3.org/Graphics/SVG/1.1/DTD/svg11.dtd">
<!-- Creator: CorelDRAW 2021 (64-Bit) -->
<svg xmlns="http://www.w3.org/2000/svg" xml:space="preserve" width="4in" height="1.17647in" version="1.1" style="shape-rendering:geometricPrecision; text-rendering:geometricPrecision; image-rendering:optimizeQuality; fill-rule:evenodd; clip-rule:evenodd"
viewBox="0 0 4000 1176.47"
 xmlns:xlink="http://www.w3.org/1999/xlink"
 xmlns:xodm="http://www.corel.com/coreldraw/odm/2003">
 <defs>
  <style type="text/css">
   <![CDATA[
    .fil1 {fill:none}
    .fil126 {fill:#0009FF}
    .fil125 {fill:#000DFF}
    .fil124 {fill:#0011FF}
    .fil123 {fill:#0014FF}
    .fil122 {fill:#0018FF}
    .fil121 {fill:#001CFF}
    .fil120 {fill:#0020FF}
    .fil119 {fill:#0024FF}
    .fil118 {fill:#0028FF}
    .fil117 {fill:#002CFE}
    .fil116 {fill:#002FFE}
    .fil115 {fill:#0033FE}
    .fil114 {fill:#0037FE}
    .fil113 {fill:#003BFE}
    .fil112 {fill:#003FFE}
    .fil111 {fill:#0043FE}
    .fil110 {fill:#0047FE}
    .fil109 {fill:#004AFE}
    .fil108 {fill:#004EFE}
    .fil107 {fill:#0052FE}
    .fil106 {fill:#0056FE}
    .fil105 {fill:#005AFE}
    .fil104 {fill:#005EFE}
    .fil103 {fill:#0062FE}
    .fil102 {fill:#0065FD}
    .fil101 {fill:#0069FD}
    .fil100 {fill:#006DFD}
    .fil99 {fill:#0071FD}
    .fil98 {fill:#0075FD}
    .fil97 {fill:#0079FD}
    .fil96 {fill:#007DFD}
    .fil95 {fill:#0080FD}
    .fil94 {fill:#0084FD}
    .fil93 {fill:#0088FD}
    .fil92 {fill:#008CFD}
    .fil91 {fill:#0090FD}
    .fil90 {fill:#0094FD}
    .fil89 {fill:#0098FD}
    .fil88 {fill:#009BFD}
    .fil87 {fill:#009FFD}
    .fil86 {fill:#00A3FC}
    .fil85 {fill:#00A7FC}
    .fil84 {fill:#00ABFC}
    .fil83 {fill:#00AFFC}
    .fil82 {fill:#00B3FC}
    .fil81 {fill:#00B6FC}
    .fil80 {fill:#00BAFC}
    .fil79 {fill:#00BEFC}
    .fil78 {fill:#00C2FC}
    .fil77 {fill:#00C6FC}
    .fil76 {fill:#00CAFC}
    .fil75 {fill:#00CEFC}
    .fil74 {fill:#00D1FC}
    .fil73 {fill:#00D5FC}
    .fil72 {fill:#00D9FC}
    .fil71 {fill:#00DDFC}
    .fil70 {fill:#00E1FB}
    .fil69 {fill:#00E5FB}
    .fil68 {fill:#00E9FB}
    .fil67 {fill:#00ECFB}
    .fil66 {fill:#00F0FB}
    .fil65 {fill:#00F4FB}
    .fil64 {fill:#00F8FB}
    .fil63 {fill:#00FCFB}
    .fil256 {fill:lime}
    .fil257 {fill:lime}
    .fil2 {fill:#00FF04}
    .fil3 {fill:#00FF08}
    .fil4 {fill:#00FF0C}
    .fil5 {fill:#00FF10}
    .fil6 {fill:#00FF15}
    .fil7 {fill:#00FF19}
    .fil8 {fill:#00FF1D}
    .fil9 {fill:#00FF21}
    .fil10 {fill:#00FF25}
    .fil11 {fill:#00FF29}
    .fil12 {fill:#00FF2D}
    .fil13 {fill:#00FF31}
    .fil14 {fill:#00FF35}
    .fil15 {fill:#00FF39}
    .fil16 {fill:#00FF3E}
    .fil17 {fill:#00FF42}
    .fil18 {fill:#00FF46}
    .fil19 {fill:#00FF4A}
    .fil20 {fill:#00FF4E}
    .fil21 {fill:#00FF52}
    .fil22 {fill:#00FF56}
    .fil23 {fill:#00FF5A}
    .fil24 {fill:#00FF5E}
    .fil25 {fill:#00FF62}
    .fil26 {fill:#00FF67}
    .fil27 {fill:#00FF6B}
    .fil28 {fill:#00FF6F}
    .fil29 {fill:#00FF73}
    .fil30 {fill:#00FF77}
    .fil31 {fill:#00FF7B}
    .fil32 {fill:springgreen}
    .fil33 {fill:#00FF83}
    .fil34 {fill:#00FF87}
    .fil35 {fill:#00FF8B}
    .fil36 {fill:#00FF90}
    .fil37 {fill:#00FF94}
    .fil38 {fill:#00FF98}
    .fil39 {fill:#00FF9C}
    .fil40 {fill:#00FFA0}
    .fil41 {fill:#00FFA4}
    .fil42 {fill:#00FFA8}
    .fil43 {fill:#00FFAC}
    .fil44 {fill:#00FFB0}
    .fil45 {fill:#00FFB4}
    .fil46 {fill:#00FFB9}
    .fil47 {fill:#00FFBD}
    .fil48 {fill:#00FFC1}
    .fil49 {fill:#00FFC5}
    .fil50 {fill:#00FFC9}
    .fil51 {fill:#00FFCD}
    .fil52 {fill:#00FFD1}
    .fil53 {fill:#00FFD5}
    .fil54 {fill:#00FFD9}
    .fil55 {fill:#00FFDD}
    .fil56 {fill:#00FFE2}
    .fil57 {fill:#00FFE6}
    .fil58 {fill:#00FFEA}
    .fil59 {fill:#00FFEE}
    .fil60 {fill:#00FFF2}
    .fil61 {fill:#00FFF6}
    .fil62 {fill:#00FFFA}
    .fil127 {fill:#0409FF}
    .fil255 {fill:#04FB04}
    .fil254 {fill:#07F708}
    .fil128 {fill:#0809FF}
    .fil253 {fill:#0BF30C}
    .fil129 {fill:#0C09FF}
    .fil252 {fill:#0FF00F}
    .fil130 {fill:#1008FF}
    .fil251 {fill:#13EC13}
    .fil131 {fill:#1408FF}
    .fil250 {fill:#16E817}
    .fil132 {fill:#1708FF}
    .fil249 {fill:#1AE41B}
    .fil133 {fill:#1B08FF}
    .fil248 {fill:#1EE01F}
    .fil134 {fill:#1F08FF}
    .fil247 {fill:#22DC23}
    .fil135 {fill:#2308FF}
    .fil246 {fill:#25D926}
    .fil136 {fill:#2708FF}
    .fil245 {fill:#29D52A}
    .fil137 {fill:#2B07FF}
    .fil244 {fill:#2DD12E}
    .fil138 {fill:#2F07FF}
    .fil243 {fill:#30CD32}
    .fil139 {fill:#3307FF}
    .fil242 {fill:#34C936}
    .fil140 {fill:#3607FF}
    .fil241 {fill:#38C53A}
    .fil141 {fill:#3A07FF}
    .fil240 {fill:#3CC13E}
    .fil142 {fill:#3E07FF}
    .fil239 {fill:#3FBE41}
    .fil143 {fill:#4207FF}
    .fil238 {fill:#43BA45}
    .fil144 {fill:#4606FF}
    .fil237 {fill:#47B649}
    .fil145 {fill:#4A06FF}
    .fil236 {fill:#4BB24D}
    .fil146 {fill:#4E06FF}
    .fil235 {fill:#4EAE51}
    .fil147 {fill:#5206FF}
    .fil234 {fill:#52AA55}
    .fil148 {fill:#5506FF}
    .fil233 {fill:#56A758}
    .fil149 {fill:#5906FF}
    .fil232 {fill:#59A35C}
    .fil150 {fill:#5D06FF}
    .fil231 {fill:#5D9F60}
    .fil151 {fill:#6105FF}
    .fil230 {fill:#619B64}
    .fil152 {fill:#6505FF}
    .fil229 {fill:#659768}
    .fil228 {fill:#68936C}
    .fil153 {fill:#6905FF}
    .fil227 {fill:#6C8F70}
    .fil154 {fill:#6D05FF}
    .fil226 {fill:#708C73}
    .fil155 {fill:#7105FF}
    .fil225 {fill:#738877}
    .fil156 {fill:#7405FF}
    .fil224 {fill:#77847B}
    .fil157 {fill:#7805FF}
    .fil223 {fill:#7B807F}
    .fil158 {fill:#7C04FF}
    .fil222 {fill:#7F7C83}
    .fil159 {fill:#8004FF}
    .fil221 {fill:#827887}
    .fil160 {fill:#8404FF}
    .fil220 {fill:#86758A}
    .fil161 {fill:#8804FF}
    .fil219 {fill:#8A718E}
    .fil162 {fill:#8C04FF}
    .fil218 {fill:#8E6D92}
    .fil163 {fill:#9004FF}
    .fil217 {fill:#916996}
    .fil164 {fill:#9304FF}
    .fil216 {fill:#95659A}
    .fil165 {fill:#9703FF}
    .fil215 {fill:#99619E}
    .fil166 {fill:#9B03FF}
    .fil214 {fill:#9C5DA2}
    .fil167 {fill:#9F03FF}
    .fil213 {fill:#A05AA5}
    .fil168 {fill:#A303FF}
    .fil212 {fill:#A456A9}
    .fil169 {fill:#A703FF}
    .fil211 {fill:#A852AD}
    .fil170 {fill:#AB03FF}
    .fil210 {fill:#AB4EB1}
    .fil171 {fill:#AF03FF}
    .fil209 {fill:#AF4AB5}
    .fil172 {fill:#B202FF}
    .fil208 {fill:#B346B9}
    .fil173 {fill:#B602FF}
    .fil207 {fill:#B743BC}
    .fil174 {fill:#BA02FF}
    .fil206 {fill:#BA3FC0}
    .fil175 {fill:#BE02FF}
    .fil205 {fill:#BE3BC4}
    .fil176 {fill:#C202FF}
    .fil204 {fill:#C237C8}
    .fil203 {fill:#C533CC}
    .fil177 {fill:#C602FF}
    .fil202 {fill:#C92FD0}
    .fil178 {fill:#CA02FF}
    .fil201 {fill:#CD2BD4}
    .fil179 {fill:#CE02FF}
    .fil180 {fill:#D101FF}
    .fil200 {fill:#D128D7}
    .fil199 {fill:#D424DB}
    .fil181 {fill:#D501FF}
    .fil198 {fill:#D820DF}
    .fil182 {fill:#D901FF}
    .fil197 {fill:#DC1CE3}
    .fil183 {fill:#DD01FF}
    .fil196 {fill:#E018E7}
    .fil184 {fill:#E101FF}
    .fil195 {fill:#E314EB}
    .fil185 {fill:#E501FF}
    .fil194 {fill:#E711EE}
    .fil186 {fill:#E901FF}
    .fil193 {fill:#EB0DF2}
    .fil187 {fill:#ED00FF}
    .fil192 {fill:#EE09F6}
    .fil188 {fill:#F000FF}
    .fil191 {fill:#F205FA}
    .fil189 {fill:#F400FF}
    .fil190 {fill:#F601FE}
    .fil0 {fill:black;fill-rule:nonzero}
   ]]>
  </style>
     <clipPath id="id0">
      <path d="M605.29 1094.78c-41.54,-6.28 -81.44,-17.56 -119.07,-33.19l-40.32 69.69 -115.44 -66.79 40.32 -69.69c-35.59,-27.33 -67.49,-59.23 -94.83,-94.83l-69.69 40.32 -66.79 -115.43 69.69 -40.32c-16.95,-40.81 -28.78,-84.29 -34.67,-129.63l-80.44 0 0 -133.36 80.44 0c5.9,-45.34 17.72,-88.81 34.67,-129.63l-69.69 -40.32 66.79 -115.43 69.69 40.32c27.33,-35.59 59.23,-67.49 94.83,-94.83l-40.32 -69.69 115.44 -66.79 40.32 69.69c37.63,-15.63 77.53,-26.91 119.07,-33.19l0 73.21c-206.23,36.51 -362.86,216.63 -362.86,433.33 0,216.7 156.63,396.82 362.86,433.33l0 73.21zm279.92 -1006.28c-0.03,0.08 43.13,-38.64 91.92,-10.41 29.92,17.31 43.47,51.54 36.4,83.18 -5.52,41.32 54.81,101.26 95.88,95.99 32.65,-7.34 66.49,7.4 83.26,36.38 18.01,31.13 11.53,69.3 -12.63,93.08 -21.48,32.66 -0.99,116.09 42.72,130.09 29.44,11.52 48.78,39.8 48.78,71.43 0,32.67 -19.12,60.51 -47.41,71.67 -45.15,14.46 -66.98,94.91 -43.85,130.09 24.69,24.52 29.83,62.7 12.39,92.84 -17.28,29.87 -51.43,43.42 -83.03,36.43 -42.13,-5.41 -101.72,53.64 -95.98,96.55 6.97,32.46 -7.78,65.92 -36.54,82.56 -30.97,17.92 -68.92,11.6 -92.73,-12.27 -32.32,-22.08 -86.19,2.85 -124.64,8.67l0 -73.21c206.23,-36.51 362.86,-216.63 362.86,-433.33 0,-216.7 -156.63,-396.82 -362.86,-433.33l0 -73.21c37.57,5.68 91.68,29.88 125.45,6.81z"/>
     </clipPath>
 </defs>
 <g id="Layer_x0020_1">
  <metadata id="CorelCorpID_0Corel-Layer"/>
  <g id="_2368188312816">
   <path class="fil0" d="M1503.27 692.08c28.77,0 49.63,-8.93 62.59,-26.79 12.96,-17.86 19.44,-44.65 19.44,-80.37 0,-17.7 -1.58,-32.88 -4.74,-45.52 -3.16,-12.64 -8.3,-23 -15.41,-31.06 -7.11,-8.06 -16.2,-13.91 -27.27,-17.54 -11.06,-3.64 -24.5,-5.45 -40.31,-5.45l-48.84 0 0 206.74 54.53 0zm-118.54 53.58l0 -314.86 121.86 0c21.18,0 40.78,3.56 58.8,10.67 18.02,7.11 33.43,17.31 46.23,30.59 12.8,13.28 22.84,29.4 30.11,48.37 7.27,18.97 10.91,40.46 10.91,64.49 0,24.03 -3.24,45.92 -9.72,65.67 -6.48,19.76 -15.73,36.67 -27.74,50.74 -12.01,14.07 -26.4,24.97 -43.15,32.72 -16.75,7.74 -35.25,11.62 -55.48,11.62l-131.82 0zm442.88 -139.41c-0.32,-8.54 -1.82,-16.04 -4.5,-22.52 -2.69,-6.48 -6.24,-11.85 -10.67,-16.12 -4.43,-4.27 -9.48,-7.43 -15.17,-9.48 -5.69,-2.05 -11.54,-3.08 -17.54,-3.08 -12.33,0 -23,4.5 -32.01,13.51 -9.01,9.01 -14.15,21.57 -15.41,37.7l95.31 0zm-97.21 38.88c0.95,17.7 6.09,31.77 15.41,42.2 9.33,10.43 21.57,15.65 36.75,15.65 10.12,0 19.05,-2.29 26.79,-6.88 7.75,-4.58 12.72,-10.99 14.94,-19.2l63.54 0c-7.27,24.03 -19.92,42.52 -37.94,55.48 -18.02,12.96 -39.51,19.44 -64.49,19.44 -77.77,0 -116.65,-42.36 -116.65,-127.08 0,-18.02 2.53,-34.3 7.59,-48.84 5.06,-14.54 12.41,-27.03 22.05,-37.46 9.64,-10.43 21.42,-18.41 35.33,-23.95 13.91,-5.53 29.87,-8.3 47.89,-8.3 36.04,0 63.3,11.54 81.8,34.62 18.49,23.08 27.74,57.85 27.74,104.32l-160.75 0zm238.51 100.53l-83.46 -233.3 68.76 0 48.84 154.11 49.32 -154.11 64.96 0 -83.93 233.3 -64.49 0zm435.3 -180.66l59.27 0 0 84.88c0,16.12 -2.61,30.74 -7.82,43.86 -5.22,13.12 -12.49,24.34 -21.81,33.67 -9.33,9.33 -20.47,16.52 -33.43,21.57 -12.96,5.06 -27.34,7.59 -43.15,7.59 -18.02,0 -33.98,-2.53 -47.89,-7.59 -13.91,-5.06 -25.68,-12.01 -35.33,-20.86 -9.64,-8.85 -16.99,-19.28 -22.05,-31.3 -5.06,-12.01 -7.59,-24.97 -7.59,-38.88 0,-7.27 0.95,-14.78 2.84,-22.52 1.9,-7.75 4.5,-14.94 7.82,-21.58 3.32,-6.64 7.35,-12.49 12.09,-17.55 4.74,-5.06 9.8,-8.85 15.17,-11.38 -24.34,-12.64 -36.51,-34.62 -36.51,-65.91 0,-13.28 2.85,-25.29 8.54,-36.04 5.69,-10.75 13.75,-20 24.18,-27.74 10.43,-7.74 22.92,-13.75 37.46,-18.02 14.54,-4.27 30.66,-6.4 48.37,-6.4l0 51.69c-21.5,0 -36.51,3.4 -45.05,10.19 -8.53,6.8 -12.8,17.94 -12.8,33.43 0,13.28 4.43,23.08 13.28,29.4 8.85,6.32 23.71,9.48 44.57,9.48l0 44.57c-18.97,0 -33.67,3.87 -44.1,11.62 -10.43,7.75 -15.65,19.68 -15.65,35.8 0,6.64 1.03,12.88 3.08,18.73 2.05,5.85 5.22,10.99 9.48,15.41 4.27,4.43 9.64,7.98 16.12,10.67 6.48,2.69 14.3,4.03 23.47,4.03 31.61,0 47.42,-18.65 47.42,-55.95l0 -84.88zm314.86 127.08c28.77,0 49.63,-8.93 62.59,-26.79 12.96,-17.86 19.44,-44.65 19.44,-80.37 0,-17.7 -1.58,-32.88 -4.74,-45.52 -3.16,-12.64 -8.3,-23 -15.41,-31.06 -7.11,-8.06 -16.2,-13.91 -27.27,-17.54 -11.06,-3.64 -24.5,-5.45 -40.3,-5.45l-48.84 0 0 206.74 54.53 0zm-118.55 53.58l0 -314.86 121.86 0c21.18,0 40.78,3.56 58.8,10.67 18.02,7.11 33.43,17.31 46.23,30.59 12.8,13.28 22.84,29.4 30.11,48.37 7.27,18.97 10.91,40.46 10.91,64.49 0,24.03 -3.24,45.92 -9.72,65.67 -6.48,19.76 -15.73,36.67 -27.74,50.74 -12.01,14.07 -26.4,24.97 -43.15,32.72 -16.75,7.74 -35.25,11.62 -55.48,11.62l-131.82 0zm442.88 -139.41c-0.32,-8.54 -1.82,-16.04 -4.5,-22.52 -2.69,-6.48 -6.24,-11.85 -10.67,-16.12 -4.43,-4.27 -9.48,-7.43 -15.17,-9.48 -5.69,-2.05 -11.54,-3.08 -17.54,-3.08 -12.33,0 -23,4.5 -32.01,13.51 -9.01,9.01 -14.15,21.57 -15.41,37.7l95.31 0zm-97.21 38.88c0.95,17.7 6.09,31.77 15.41,42.2 9.33,10.43 21.57,15.65 36.75,15.65 10.12,0 19.05,-2.29 26.79,-6.88 7.75,-4.58 12.72,-10.99 14.94,-19.2l63.54 0c-7.27,24.03 -19.92,42.52 -37.93,55.48 -18.02,12.96 -39.52,19.44 -64.49,19.44 -77.77,0 -116.65,-42.36 -116.65,-127.08 0,-18.02 2.53,-34.3 7.59,-48.84 5.06,-14.54 12.41,-27.03 22.05,-37.46 9.64,-10.43 21.42,-18.41 35.33,-23.95 13.91,-5.53 29.87,-8.3 47.89,-8.3 36.04,0 63.3,11.54 81.8,34.62 18.49,23.08 27.74,57.85 27.74,104.32l-160.75 0zm322.44 -62.12c-1.58,-11.38 -5.69,-19.36 -12.33,-23.95 -6.64,-4.58 -17.07,-6.88 -31.3,-6.88 -11.7,0 -20.7,1.5 -27.03,4.5 -6.32,3 -9.48,7.98 -9.48,14.94 0,6.96 3.16,12.25 9.48,15.89 6.32,3.64 15.81,7.19 28.45,10.67 13.28,3.79 25.92,7.19 37.93,10.19 12.01,3 22.6,6.24 31.77,9.72 12.33,5.06 21.81,11.93 28.45,20.63 6.64,8.69 9.96,20.63 9.96,35.8 0,24.34 -8.61,43.31 -25.84,56.9 -17.23,13.59 -42.6,20.39 -76.11,20.39 -36.04,0 -63.62,-7.59 -82.74,-22.76 -19.13,-15.17 -29,-34.62 -29.64,-58.32l63.54 0c0,11.06 4.27,19.6 12.8,25.61 8.54,6.01 20.39,9.01 35.56,9.01 11.06,0 20.7,-1.82 28.92,-5.45 8.22,-3.64 12.33,-9.88 12.33,-18.73 0,-8.22 -3.71,-14.07 -11.14,-17.55 -7.43,-3.48 -16.2,-6.48 -26.32,-9.01 -19.6,-4.74 -35.41,-9.01 -47.42,-12.8 -12.01,-3.79 -22.13,-8.38 -30.35,-13.75 -11.06,-6.96 -18.73,-14.86 -23,-23.71 -4.27,-8.85 -6.4,-18.49 -6.4,-28.93 0,-9.8 1.74,-18.97 5.22,-27.5 3.48,-8.54 9.17,-15.89 17.07,-22.05 7.9,-6.16 18.1,-10.99 30.58,-14.46 12.49,-3.48 27.58,-5.22 45.28,-5.22 33.82,0 58.72,6.48 74.68,19.44 15.96,12.96 24.74,32.09 26.32,57.38l-59.27 0zm84.88 162.64l0 -233.3 61.64 0 0 233.3 -61.64 0zm0 -261.27l0 -57.37 61.64 0 0 57.37 -61.64 0zm201.53 214.8c15.17,0 27.74,-5.77 37.7,-17.31 9.96,-11.54 14.94,-27.26 14.94,-47.18 0,-49.95 -17.55,-74.92 -52.63,-74.92 -35.09,0 -52.63,23.71 -52.63,71.13 0,20.86 4.98,37.46 14.94,49.79 9.96,12.33 22.52,18.49 37.7,18.49zm50.74 15.17c-4.43,10.43 -12.41,18.57 -23.95,24.42 -11.54,5.85 -24.89,8.77 -40.07,8.77 -19.28,0 -35.48,-3.4 -48.6,-10.2 -13.12,-6.8 -23.71,-15.73 -31.77,-26.79 -8.06,-11.06 -13.91,-23.87 -17.55,-38.41 -3.64,-14.54 -5.45,-29.4 -5.45,-44.57 0,-18.02 2.69,-34.54 8.06,-49.55 5.37,-15.02 12.64,-27.82 21.81,-38.41 9.17,-10.59 19.92,-18.81 32.24,-24.66 12.33,-5.85 25.61,-8.77 39.83,-8.77 29.08,0 50.89,11.7 65.44,35.09l0 -28.92 61.64 0 0 235.67c0,17.7 -3,33.27 -9.01,46.71 -6.01,13.44 -14.23,24.66 -24.66,33.67 -10.43,9.01 -22.76,15.89 -36.99,20.63 -14.23,4.74 -29.4,7.11 -45.52,7.11 -16.12,0 -31.14,-2.29 -45.05,-6.88 -13.91,-4.58 -25.84,-11.06 -35.8,-19.44 -9.96,-8.38 -17.78,-18.57 -23.47,-30.58 -5.69,-12.01 -8.54,-25.61 -8.54,-40.78l57.38 0c0,14.23 4.66,25.21 13.99,32.96 9.33,7.75 21.73,11.62 37.22,11.62 16.44,0 30.35,-4.5 41.73,-13.51 11.38,-9.01 17.07,-21.26 17.07,-36.75l0 -38.41zm238.04 31.3l0 -141.31c0,-18.02 -3,-30.19 -9.01,-36.51 -6.01,-6.32 -16.28,-9.48 -30.82,-9.48 -31.93,0 -47.89,17.86 -47.89,53.58l0 133.72 -61.64 0 0 -233.3 58.8 0 0 34.14c7.27,-13.28 16.91,-23.31 28.92,-30.11 12.01,-6.8 27.5,-10.19 46.47,-10.19 11.06,0 21.34,1.66 30.82,4.98 9.48,3.32 17.62,8.3 24.42,14.94 6.8,6.64 12.17,14.78 16.12,24.42 3.95,9.64 5.93,20.79 5.93,33.43l0 161.7 -62.12 0z"/>
   <path class="fil1" d="M682.8 1098.48c281.8,0 510.24,-228.44 510.24,-510.24 0,-281.8 -228.44,-510.24 -510.24,-510.24 -281.8,0 -510.24,228.44 -510.24,510.24 0,281.8 228.44,510.24 510.24,510.24z"/>
   <path class="fil1" d="M682.8 1028.33c243.06,0 440.09,-197.04 440.09,-440.09 0,-243.06 -197.04,-440.09 -440.09,-440.09 -243.06,0 -440.09,197.04 -440.09,440.09 0,243.06 197.04,440.09 440.09,440.09z"/>
   <path class="fil0" d="M386.71 647.51c0,15.02 0.3,26.48 0.89,34.38 0.59,7.9 2.77,13.73 6.52,17.49 3.75,3.75 9.58,5.93 17.49,6.52 7.9,0.59 19.36,0.89 34.38,0.89 14.62,0 25.98,-0.3 34.08,-0.89 8.1,-0.59 14.03,-2.77 17.78,-6.52 3.75,-3.75 5.93,-9.58 6.52,-17.49 0.59,-7.9 0.89,-19.36 0.89,-34.38l0 -118.54c0,-14.62 -0.3,-25.98 -0.89,-34.08 -0.59,-8.1 -2.77,-14.03 -6.52,-17.78 -3.75,-3.75 -9.68,-5.93 -17.78,-6.52 -8.1,-0.59 -19.46,-0.89 -34.08,-0.89l-29.64 0c-5.93,0 -10.77,-0.2 -14.52,-0.59 -3.75,-0.39 -6.82,-1.48 -9.19,-3.26 -2.37,-1.78 -3.95,-4.64 -4.74,-8.6 -0.79,-3.95 -1.19,-9.68 -1.19,-17.19 0,-7.51 0.4,-13.24 1.19,-17.19 0.79,-3.95 2.37,-6.82 4.74,-8.59 2.37,-1.78 5.43,-2.87 9.19,-3.26 3.75,-0.4 8.59,-0.59 14.52,-0.59l207.45 0c14.62,0 25.98,0.3 34.08,0.89 8.1,0.59 14.03,2.77 17.78,6.52 3.75,3.75 5.93,9.68 6.52,17.78 0.59,8.1 0.89,19.46 0.89,34.08l0 237.09c0,15.02 -0.3,26.48 -0.89,34.38 -0.59,7.9 -2.77,13.73 -6.52,17.49 -3.75,3.75 -9.68,5.93 -17.78,6.52 -8.1,0.59 -19.46,0.89 -34.08,0.89l-237.09 0c-15.02,0 -26.47,-0.3 -34.38,-0.89 -7.9,-0.59 -13.73,-2.77 -17.49,-6.52 -3.75,-3.75 -5.93,-9.58 -6.52,-17.49 -0.59,-7.9 -0.89,-19.36 -0.89,-34.38l0 -88.91c0,-5.93 0.2,-10.77 0.59,-14.52 0.4,-3.75 1.48,-6.82 3.26,-9.19 1.78,-2.37 4.64,-3.95 8.59,-4.74 3.95,-0.79 9.68,-1.19 17.19,-1.19 7.51,0 13.24,0.4 17.19,1.19 3.95,0.79 6.82,2.37 8.59,4.74 1.78,2.37 2.86,5.43 3.26,9.19 0.39,3.75 0.59,8.59 0.59,14.52l0 29.64zm533.45 0c0,15.02 0.3,26.48 0.89,34.38 0.59,7.9 2.77,13.73 6.52,17.49 3.75,3.75 9.58,5.93 17.48,6.52 7.9,0.59 19.36,0.89 34.38,0.89l29.64 0c5.93,0 10.77,0.2 14.52,0.59 3.75,0.39 6.82,1.48 9.19,3.26 2.37,1.78 3.95,4.64 4.74,8.59 0.79,3.95 1.18,9.68 1.18,17.19 0,7.51 -0.4,13.24 -1.18,17.19 -0.79,3.95 -2.37,6.82 -4.74,8.59 -2.37,1.78 -5.43,2.87 -9.19,3.26 -3.75,0.4 -8.59,0.59 -14.52,0.59l-160.04 0c-8.3,0 -14.23,-1.78 -17.78,-5.33 -3.56,-3.56 -6.32,-8.2 -8.3,-13.93 -1.97,-5.73 -4.35,-12.15 -7.11,-19.26 -2.77,-7.11 -7.51,-14.03 -14.23,-20.75 -6.72,-6.72 -13.63,-11.46 -20.75,-14.23 -7.11,-2.77 -13.53,-5.14 -19.26,-7.11 -5.73,-1.97 -10.37,-4.74 -13.93,-8.3 -3.56,-3.56 -5.33,-9.48 -5.33,-17.78l0 -189.08c0,-15.02 0.3,-26.57 0.89,-34.67 0.59,-8.1 2.77,-14.03 6.52,-17.78 3.75,-3.75 9.58,-5.93 17.49,-6.52 7.9,-0.59 19.36,-0.89 34.38,-0.89l59.27 0c14.62,0 25.98,0.3 34.08,0.89 8.1,0.59 14.03,2.77 17.78,6.52 3.75,3.75 5.93,9.68 6.52,17.78 0.59,8.1 0.89,19.46 0.89,34.08l0 177.82z"/>
   <g>
    <g style="clip-path:url(#id0)">
     <polygon class="fil2" points="682.8,588.24 -149.93,583.52 -149.18,555.25 "/>
     <polygon id="_1" class="fil3" points="682.8,588.24 -149.3,559.97 -148.05,536.43 "/>
     <polygon id="_2" class="fil4" points="682.8,588.24 -148.3,541.14 -146.42,517.64 "/>
     <polygon id="_3" class="fil5" points="682.8,588.24 -146.8,522.34 -144.29,498.89 "/>
     <polygon id="_4" class="fil6" points="682.8,588.24 -144.79,503.58 -141.67,480.19 "/>
     <polygon id="_5" class="fil7" points="682.8,588.24 -142.29,484.87 -138.54,461.56 "/>
     <polygon id="_6" class="fil8" points="682.8,588.24 -139.29,466.23 -134.93,443.01 "/>
     <polygon id="_7" class="fil9" points="682.8,588.24 -135.8,447.65 -130.82,424.54 "/>
     <polygon id="_8" class="fil10" points="682.8,588.24 -131.81,429.17 -126.21,406.17 "/>
     <polygon id="_9" class="fil11" points="682.8,588.24 -127.33,410.77 -121.13,387.92 "/>
     <polygon id="_10" class="fil12" points="682.8,588.24 -122.37,392.49 -115.56,369.78 "/>
     <polygon id="_11" class="fil13" points="682.8,588.24 -116.92,374.32 -109.5,351.77 "/>
     <polygon id="_12" class="fil14" points="682.8,588.24 -110.99,356.28 -102.97,333.91 "/>
     <polygon id="_13" class="fil15" points="682.8,588.24 -104.58,338.38 -95.97,316.2 "/>
     <polygon id="_14" class="fil16" points="682.8,588.24 -97.69,320.64 -88.5,298.65 "/>
     <polygon id="_15" class="fil17" points="682.8,588.24 -90.34,303.05 -80.56,281.28 "/>
     <polygon id="_16" class="fil18" points="682.8,588.24 -82.52,285.63 -72.16,264.09 "/>
     <polygon id="_17" class="fil19" points="682.8,588.24 -74.23,268.4 -63.31,247.1 "/>
     <polygon id="_18" class="fil20" points="682.8,588.24 -65.5,251.36 -54.01,230.31 "/>
     <polygon id="_19" class="fil21" points="682.8,588.24 -56.31,234.52 -44.27,213.74 "/>
     <polygon id="_20" class="fil22" points="682.8,588.24 -46.67,217.9 -34.08,197.4 "/>
     <polygon id="_21" class="fil23" points="682.8,588.24 -36.6,201.5 -23.47,181.29 "/>
     <polygon id="_22" class="fil24" points="682.8,588.24 -26.1,185.33 -12.43,165.42 "/>
     <polygon id="_23" class="fil25" points="682.8,588.24 -15.16,169.4 -0.97,149.81 "/>
     <polygon id="_24" class="fil26" points="682.8,588.24 -3.81,153.73 10.9,134.46 "/>
     <polygon id="_25" class="fil27" points="682.8,588.24 7.96,138.32 23.18,119.39 "/>
     <polygon id="_26" class="fil28" points="682.8,588.24 20.13,123.18 35.85,104.6 "/>
     <polygon id="_27" class="fil29" points="682.8,588.24 32.71,108.32 48.91,90.1 "/>
     <polygon id="_28" class="fil30" points="682.8,588.24 45.67,93.75 62.36,75.9 "/>
     <polygon id="_29" class="fil31" points="682.8,588.24 59.02,79.47 76.18,62.01 "/>
     <polygon id="_30" class="fil32" points="682.8,588.24 72.74,65.51 90.36,48.44 "/>
     <polygon id="_31" class="fil33" points="682.8,588.24 86.83,51.85 104.9,35.19 "/>
     <polygon id="_32" class="fil34" points="682.8,588.24 101.29,38.52 119.79,22.28 "/>
     <polygon id="_33" class="fil35" points="682.8,588.24 116.09,25.53 135.02,9.7 "/>
     <polygon id="_34" class="fil36" points="682.8,588.24 131.23,12.87 150.57,-2.52 "/>
     <polygon id="_35" class="fil37" points="682.8,588.24 146.7,0.55 166.45,-14.39 "/>
     <polygon id="_36" class="fil38" points="682.8,588.24 162.5,-11.4 182.64,-25.9 "/>
     <polygon id="_37" class="fil39" points="682.8,588.24 178.61,-23 199.13,-37.04 "/>
     <polygon id="_38" class="fil40" points="682.8,588.24 195.03,-34.23 215.91,-47.8 "/>
     <polygon id="_39" class="fil41" points="682.8,588.24 211.73,-45.08 232.98,-58.18 "/>
     <polygon id="_40" class="fil42" points="682.8,588.24 228.73,-55.56 250.31,-68.16 "/>
     <polygon id="_41" class="fil43" points="682.8,588.24 245.99,-65.64 267.9,-77.76 "/>
     <polygon id="_42" class="fil44" points="682.8,588.24 263.52,-75.33 285.75,-86.95 "/>
     <polygon id="_43" class="fil45" points="682.8,588.24 281.3,-84.62 303.83,-95.73 "/>
     <polygon id="_44" class="fil46" points="682.8,588.24 299.33,-93.51 322.14,-104.1 "/>
     <polygon id="_45" class="fil47" points="682.8,588.24 317.58,-101.98 340.67,-112.06 "/>
     <polygon id="_46" class="fil48" points="682.8,588.24 336.05,-110.04 359.41,-119.59 "/>
     <polygon id="_47" class="fil49" points="682.8,588.24 354.74,-117.68 378.34,-126.7 "/>
     <polygon id="_48" class="fil50" points="682.8,588.24 373.62,-124.9 397.45,-133.38 "/>
     <polygon id="_49" class="fil51" points="682.8,588.24 392.68,-131.68 416.74,-139.62 "/>
     <polygon id="_50" class="fil52" points="682.8,588.24 411.93,-138.03 436.18,-145.42 "/>
     <polygon id="_51" class="fil53" points="682.8,588.24 431.33,-143.94 455.78,-150.78 "/>
     <polygon id="_52" class="fil54" points="682.8,588.24 450.89,-149.42 475.51,-155.7 "/>
     <polygon id="_53" class="fil55" points="682.8,588.24 470.58,-154.44 495.36,-160.17 "/>
     <polygon id="_54" class="fil56" points="682.8,588.24 490.41,-159.02 515.33,-164.19 "/>
     <polygon id="_55" class="fil57" points="682.8,588.24 510.35,-163.15 535.4,-167.75 "/>
     <polygon id="_56" class="fil58" points="682.8,588.24 530.39,-166.83 555.56,-170.86 "/>
     <polygon id="_57" class="fil59" points="682.8,588.24 550.53,-170.05 575.8,-173.51 "/>
     <polygon id="_58" class="fil60" points="682.8,588.24 570.74,-172.82 596.09,-175.7 "/>
     <polygon id="_59" class="fil61" points="682.8,588.24 591.02,-175.13 616.45,-177.44 "/>
     <polygon id="_60" class="fil62" points="682.8,588.24 611.36,-176.97 636.84,-178.71 "/>
     <polygon id="_61" class="fil63" points="682.8,588.24 631.74,-178.36 657.26,-179.52 "/>
     <polygon id="_62" class="fil64" points="682.8,588.24 652.15,-179.29 677.69,-179.86 "/>
     <polygon id="_63" class="fil65" points="682.8,588.24 672.58,-179.75 698.13,-179.75 "/>
     <polygon id="_64" class="fil66" points="682.8,588.24 693.02,-179.75 718.56,-179.17 "/>
     <polygon id="_65" class="fil67" points="682.8,588.24 713.45,-179.29 738.97,-178.13 "/>
     <polygon id="_66" class="fil68" points="682.8,588.24 733.86,-178.36 759.34,-176.63 "/>
     <polygon id="_67" class="fil69" points="682.8,588.24 754.24,-176.97 779.67,-174.67 "/>
     <polygon id="_68" class="fil70" points="682.8,588.24 774.58,-175.13 799.93,-172.24 "/>
     <polygon id="_69" class="fil71" points="682.8,588.24 794.86,-172.82 820.13,-169.36 "/>
     <polygon id="_70" class="fil72" points="682.8,588.24 815.08,-170.05 840.25,-166.03 "/>
     <polygon id="_71" class="fil73" points="682.8,588.24 835.21,-166.83 860.27,-162.23 "/>
     <polygon id="_72" class="fil74" points="682.8,588.24 855.26,-163.15 880.18,-157.99 "/>
     <polygon id="_73" class="fil75" points="682.8,588.24 875.2,-159.02 899.98,-153.3 "/>
     <polygon id="_74" class="fil76" points="682.8,588.24 895.02,-154.44 919.64,-148.16 "/>
     <polygon id="_75" class="fil77" points="682.8,588.24 914.72,-149.42 939.16,-142.58 "/>
     <polygon id="_76" class="fil78" points="682.8,588.24 934.27,-143.94 958.53,-136.55 "/>
     <polygon id="_77" class="fil79" points="682.8,588.24 953.68,-138.03 977.73,-130.09 "/>
     <polygon id="_78" class="fil80" points="682.8,588.24 972.92,-131.68 996.75,-123.2 "/>
     <polygon id="_79" class="fil81" points="682.8,588.24 991.99,-124.9 1015.59,-115.88 "/>
     <polygon id="_80" class="fil82" points="682.8,588.24 1010.87,-117.68 1034.22,-108.13 "/>
     <polygon id="_81" class="fil83" points="682.8,588.24 1029.55,-110.04 1052.64,-99.97 "/>
     <polygon id="_82" class="fil84" points="682.8,588.24 1048.02,-101.98 1070.84,-91.39 "/>
     <polygon id="_83" class="fil85" points="682.8,588.24 1066.28,-93.51 1088.81,-82.4 "/>
     <polygon id="_84" class="fil86" points="682.8,588.24 1084.3,-84.62 1106.53,-73.01 "/>
     <polygon id="_85" class="fil87" points="682.8,588.24 1102.08,-75.33 1123.99,-63.22 "/>
     <polygon id="_86" class="fil88" points="682.8,588.24 1119.61,-65.64 1141.19,-53.03 "/>
     <polygon id="_87" class="fil89" points="682.8,588.24 1136.88,-55.56 1158.12,-42.47 "/>
     <polygon id="_88" class="fil90" points="682.8,588.24 1153.87,-45.08 1174.75,-31.52 "/>
     <polygon id="_89" class="fil91" points="682.8,588.24 1170.58,-34.23 1191.1,-20.19 "/>
     <polygon id="_90" class="fil92" points="682.8,588.24 1186.99,-23 1207.13,-8.5 "/>
     <polygon id="_91" class="fil93" points="682.8,588.24 1203.1,-11.4 1222.85,3.55 "/>
     <polygon id="_92" class="fil94" points="682.8,588.24 1218.9,0.55 1238.24,15.95 "/>
     <polygon id="_93" class="fil95" points="682.8,588.24 1234.37,12.87 1253.3,28.69 "/>
     <polygon id="_94" class="fil96" points="682.8,588.24 1249.52,25.53 1268.02,41.77 "/>
     <polygon id="_95" class="fil97" points="682.8,588.24 1264.32,38.52 1282.38,55.19 "/>
     <polygon id="_96" class="fil98" points="682.8,588.24 1278.77,51.85 1296.38,68.92 "/>
     <polygon id="_97" class="fil99" points="682.8,588.24 1292.86,65.51 1310.02,82.96 "/>
     <polygon id="_98" class="fil100" points="682.8,588.24 1306.58,79.47 1323.27,97.31 "/>
     <polygon id="_99" class="fil101" points="682.8,588.24 1319.93,93.75 1336.14,111.96 "/>
     <polygon id="_100" class="fil102" points="682.8,588.24 1332.9,108.32 1348.61,126.89 "/>
     <polygon id="_101" class="fil103" points="682.8,588.24 1345.47,123.18 1360.69,142.1 "/>
     <polygon id="_102" class="fil104" points="682.8,588.24 1357.64,138.32 1372.35,157.58 "/>
     <polygon id="_103" class="fil105" points="682.8,588.24 1369.41,153.73 1383.6,173.32 "/>
     <polygon id="_104" class="fil106" points="682.8,588.24 1380.77,169.4 1394.43,189.31 "/>
     <polygon id="_105" class="fil107" points="682.8,588.24 1391.7,185.33 1404.83,205.54 "/>
     <polygon id="_106" class="fil108" points="682.8,588.24 1402.2,201.5 1414.8,222 "/>
     <polygon id="_107" class="fil109" points="682.8,588.24 1412.28,217.9 1424.32,238.68 "/>
     <polygon id="_108" class="fil110" points="682.8,588.24 1421.91,234.52 1433.4,255.57 "/>
     <polygon id="_109" class="fil111" points="682.8,588.24 1431.1,251.36 1442.02,272.66 "/>
     <polygon id="_110" class="fil112" points="682.8,588.24 1439.84,268.4 1450.19,289.94 "/>
     <polygon id="_111" class="fil113" points="682.8,588.24 1448.12,285.63 1457.89,307.4 "/>
     <polygon id="_112" class="fil114" points="682.8,588.24 1455.94,303.05 1465.13,325.03 "/>
     <polygon id="_113" class="fil115" points="682.8,588.24 1463.29,320.64 1471.9,342.82 "/>
     <polygon id="_114" class="fil116" points="682.8,588.24 1470.18,338.38 1478.19,360.76 "/>
     <polygon id="_115" class="fil117" points="682.8,588.24 1476.59,356.28 1484.01,378.83 "/>
     <polygon id="_116" class="fil118" points="682.8,588.24 1482.52,374.32 1489.33,397.03 "/>
     <polygon id="_117" class="fil119" points="682.8,588.24 1487.97,392.49 1494.18,415.35 "/>
     <polygon id="_118" class="fil120" points="682.8,588.24 1492.94,410.77 1498.54,433.76 "/>
     <polygon id="_119" class="fil121" points="682.8,588.24 1497.42,429.17 1502.4,452.28 "/>
     <polygon id="_120" class="fil122" points="682.8,588.24 1501.4,447.65 1505.77,470.87 "/>
     <polygon id="_121" class="fil123" points="682.8,588.24 1504.9,466.23 1508.64,489.53 "/>
     <polygon id="_122" class="fil124" points="682.8,588.24 1507.9,484.87 1511.02,508.26 "/>
     <polygon id="_123" class="fil125" points="682.8,588.24 1510.4,503.58 1512.9,527.03 "/>
     <polygon id="_124" class="fil126" points="682.8,588.24 1512.4,522.34 1514.28,545.84 "/>
     <polygon id="_125" class="fil127" points="682.8,588.24 1513.9,541.14 1515.16,564.67 "/>
     <polygon id="_126" class="fil128" points="682.8,588.24 1514.91,559.97 1515.53,583.52 "/>
     <polygon id="_127" class="fil129" points="682.8,588.24 1515.41,578.81 1515.41,602.37 "/>
     <polygon id="_128" class="fil130" points="682.8,588.24 1515.41,597.66 1514.78,621.22 "/>
     <polygon id="_129" class="fil131" points="682.8,588.24 1514.91,616.5 1513.65,640.04 "/>
     <polygon id="_130" class="fil132" points="682.8,588.24 1513.9,635.33 1512.02,658.83 "/>
     <polygon id="_131" class="fil133" points="682.8,588.24 1512.4,654.13 1509.9,677.58 "/>
     <polygon id="_132" class="fil134" points="682.8,588.24 1510.4,672.89 1507.27,696.28 "/>
     <polygon id="_133" class="fil135" points="682.8,588.24 1507.9,691.6 1504.15,714.91 "/>
     <polygon id="_134" class="fil136" points="682.8,588.24 1504.9,710.25 1500.53,733.46 "/>
     <polygon id="_135" class="fil137" points="682.8,588.24 1501.4,728.82 1496.42,751.93 "/>
     <polygon id="_136" class="fil138" points="682.8,588.24 1497.42,747.31 1491.82,770.3 "/>
     <polygon id="_137" class="fil139" points="682.8,588.24 1492.94,765.7 1486.73,788.55 "/>
     <polygon id="_138" class="fil140" points="682.8,588.24 1487.97,783.98 1481.16,806.69 "/>
     <polygon id="_139" class="fil141" points="682.8,588.24 1482.52,802.15 1475.11,824.7 "/>
     <polygon id="_140" class="fil142" points="682.8,588.24 1476.59,820.19 1468.58,842.56 "/>
     <polygon id="_141" class="fil143" points="682.8,588.24 1470.18,838.09 1461.57,860.27 "/>
     <polygon id="_142" class="fil144" points="682.8,588.24 1463.29,855.84 1454.1,877.82 "/>
     <polygon id="_143" class="fil145" points="682.8,588.24 1455.94,873.42 1446.16,895.19 "/>
     <polygon id="_144" class="fil146" points="682.8,588.24 1448.12,890.84 1437.77,912.38 "/>
     <polygon id="_145" class="fil147" points="682.8,588.24 1439.84,908.07 1428.91,929.37 "/>
     <polygon id="_146" class="fil148" points="682.8,588.24 1431.1,925.11 1419.61,946.16 "/>
     <polygon id="_147" class="fil149" points="682.8,588.24 1421.91,941.95 1409.87,962.73 "/>
     <polygon id="_148" class="fil150" points="682.8,588.24 1412.28,958.57 1399.69,979.08 "/>
     <polygon id="_149" class="fil151" points="682.8,588.24 1402.2,974.97 1389.07,995.18 "/>
     <polygon id="_150" class="fil152" points="682.8,588.24 1391.7,991.14 1378.03,1011.05 "/>
     <polygon id="_151" class="fil153" points="682.8,588.24 1380.77,1007.07 1366.57,1026.66 "/>
     <polygon id="_152" class="fil154" points="682.8,588.24 1369.41,1022.74 1354.7,1042.01 "/>
     <polygon id="_153" class="fil155" points="682.8,588.24 1357.64,1038.15 1342.43,1057.08 "/>
     <polygon id="_154" class="fil156" points="682.8,588.24 1345.47,1053.29 1329.75,1071.87 "/>
     <polygon id="_155" class="fil157" points="682.8,588.24 1332.9,1068.15 1316.69,1086.37 "/>
     <polygon id="_156" class="fil158" points="682.8,588.24 1319.93,1082.73 1303.25,1100.57 "/>
     <polygon id="_157" class="fil159" points="682.8,588.24 1306.58,1097 1289.43,1114.46 "/>
     <polygon id="_158" class="fil160" points="682.8,588.24 1292.86,1110.97 1275.24,1128.03 "/>
     <polygon id="_159" class="fil161" points="682.8,588.24 1278.77,1124.62 1260.7,1141.28 "/>
     <polygon id="_160" class="fil162" points="682.8,588.24 1264.32,1137.95 1245.82,1154.19 "/>
     <polygon id="_161" class="fil163" points="682.8,588.24 1249.52,1150.94 1230.59,1166.77 "/>
     <polygon id="_162" class="fil164" points="682.8,588.24 1234.37,1163.6 1215.03,1178.99 "/>
     <polygon id="_163" class="fil165" points="682.8,588.24 1218.9,1175.92 1199.15,1190.86 "/>
     <polygon id="_164" class="fil166" points="682.8,588.24 1203.1,1187.87 1182.96,1202.37 "/>
     <polygon id="_165" class="fil167" points="682.8,588.24 1186.99,1199.47 1166.47,1213.51 "/>
     <polygon id="_166" class="fil168" points="682.8,588.24 1170.58,1210.7 1149.69,1224.27 "/>
     <polygon id="_167" class="fil169" points="682.8,588.24 1153.87,1221.55 1132.63,1234.65 "/>
     <polygon id="_168" class="fil170" points="682.8,588.24 1136.88,1232.03 1115.29,1244.63 "/>
     <polygon id="_169" class="fil171" points="682.8,588.24 1119.61,1242.11 1097.7,1254.23 "/>
     <polygon id="_170" class="fil172" points="682.8,588.24 1102.08,1251.8 1079.85,1263.42 "/>
     <polygon id="_171" class="fil173" points="682.8,588.24 1084.3,1261.09 1061.77,1272.2 "/>
     <polygon id="_172" class="fil174" points="682.8,588.24 1066.28,1269.98 1043.46,1280.57 "/>
     <polygon id="_173" class="fil175" points="682.8,588.24 1048.02,1278.45 1024.93,1288.53 "/>
     <polygon id="_174" class="fil176" points="682.8,588.24 1029.55,1286.52 1006.19,1296.06 "/>
     <polygon id="_175" class="fil177" points="682.8,588.24 1010.87,1294.15 987.26,1303.17 "/>
     <polygon id="_176" class="fil178" points="682.8,588.24 991.99,1301.37 968.15,1309.85 "/>
     <polygon id="_177" class="fil179" points="682.8,588.24 972.92,1308.15 948.87,1316.09 "/>
     <polygon id="_178" class="fil180" points="682.8,588.24 953.68,1314.5 929.42,1321.89 "/>
     <polygon id="_179" class="fil181" points="682.8,588.24 934.27,1320.41 909.83,1327.25 "/>
     <polygon id="_180" class="fil182" points="682.8,588.24 914.72,1325.89 890.1,1332.17 "/>
     <polygon id="_181" class="fil183" points="682.8,588.24 895.02,1330.91 870.24,1336.64 "/>
     <polygon id="_182" class="fil184" points="682.8,588.24 875.2,1335.49 850.27,1340.66 "/>
     <polygon id="_183" class="fil185" points="682.8,588.24 855.26,1339.62 830.2,1344.22 "/>
     <polygon id="_184" class="fil186" points="682.8,588.24 835.21,1343.3 810.04,1347.33 "/>
     <polygon id="_185" class="fil187" points="682.8,588.24 815.08,1346.52 789.81,1349.98 "/>
     <polygon id="_186" class="fil188" points="682.8,588.24 794.86,1349.29 769.51,1352.18 "/>
     <polygon id="_187" class="fil189" points="682.8,588.24 774.58,1351.6 749.16,1353.91 "/>
     <polygon id="_188" class="fil190" points="682.8,588.24 754.24,1353.45 728.77,1355.18 "/>
     <polygon id="_189" class="fil191" points="682.8,588.24 733.86,1354.83 708.35,1355.99 "/>
     <polygon id="_190" class="fil192" points="682.8,588.24 713.45,1355.76 687.91,1356.34 "/>
     <polygon id="_191" class="fil193" points="682.8,588.24 693.02,1356.22 667.47,1356.22 "/>
     <polygon id="_192" class="fil194" points="682.8,588.24 672.58,1356.22 647.04,1355.64 "/>
     <polygon id="_193" class="fil195" points="682.8,588.24 652.15,1355.76 626.64,1354.6 "/>
     <polygon id="_194" class="fil196" points="682.8,588.24 631.74,1354.83 606.26,1353.1 "/>
     <polygon id="_195" class="fil197" points="682.8,588.24 611.36,1353.45 585.94,1351.14 "/>
     <polygon id="_196" class="fil198" points="682.8,588.24 591.02,1351.6 565.67,1348.71 "/>
     <polygon id="_197" class="fil199" points="682.8,588.24 570.74,1349.29 545.47,1345.83 "/>
     <polygon id="_198" class="fil200" points="682.8,588.24 550.53,1346.52 525.36,1342.5 "/>
     <polygon id="_199" class="fil201" points="682.8,588.24 530.39,1343.3 505.33,1338.7 "/>
     <polygon id="_200" class="fil202" points="682.8,588.24 510.35,1339.62 485.42,1334.46 "/>
     <polygon id="_201" class="fil203" points="682.8,588.24 490.41,1335.49 465.63,1329.77 "/>
     <polygon id="_202" class="fil204" points="682.8,588.24 470.58,1330.91 445.96,1324.63 "/>
     <polygon id="_203" class="fil205" points="682.8,588.24 450.89,1325.89 426.44,1319.05 "/>
     <polygon id="_204" class="fil206" points="682.8,588.24 431.33,1320.41 407.07,1313.02 "/>
     <polygon id="_205" class="fil207" points="682.8,588.24 411.93,1314.5 387.87,1306.56 "/>
     <polygon id="_206" class="fil208" points="682.8,588.24 392.68,1308.15 368.85,1299.67 "/>
     <polygon id="_207" class="fil209" points="682.8,588.24 373.62,1301.37 350.02,1292.35 "/>
     <polygon id="_208" class="fil210" points="682.8,588.24 354.74,1294.15 331.38,1284.6 "/>
     <polygon id="_209" class="fil211" points="682.8,588.24 336.05,1286.52 312.96,1276.44 "/>
     <polygon id="_210" class="fil212" points="682.8,588.24 317.58,1278.45 294.76,1267.86 "/>
     <polygon id="_211" class="fil213" points="682.8,588.24 299.33,1269.98 276.8,1258.87 "/>
     <polygon id="_212" class="fil214" points="682.8,588.24 281.3,1261.09 259.07,1249.48 "/>
     <polygon id="_213" class="fil215" points="682.8,588.24 263.52,1251.8 241.61,1239.69 "/>
     <polygon id="_214" class="fil216" points="682.8,588.24 245.99,1242.11 224.41,1229.51 "/>
     <polygon id="_215" class="fil217" points="682.8,588.24 228.73,1232.03 207.49,1218.94 "/>
     <polygon id="_216" class="fil218" points="682.8,588.24 211.73,1221.55 190.85,1207.99 "/>
     <polygon id="_217" class="fil219" points="682.8,588.24 195.03,1210.7 174.51,1196.66 "/>
     <polygon id="_218" class="fil220" points="682.8,588.24 178.61,1199.47 158.47,1184.97 "/>
     <polygon id="_219" class="fil221" points="682.8,588.24 162.5,1187.87 142.75,1172.93 "/>
     <polygon id="_220" class="fil222" points="682.8,588.24 146.7,1175.92 127.36,1160.53 "/>
     <polygon id="_221" class="fil223" points="682.8,588.24 131.23,1163.6 112.3,1147.78 "/>
     <polygon id="_222" class="fil224" points="682.8,588.24 116.09,1150.94 97.58,1134.7 "/>
     <polygon id="_223" class="fil225" points="682.8,588.24 101.29,1137.95 83.22,1121.28 "/>
     <polygon id="_224" class="fil226" points="682.8,588.24 86.83,1124.62 69.22,1107.55 "/>
     <polygon id="_225" class="fil227" points="682.8,588.24 72.74,1110.97 55.59,1093.51 "/>
     <polygon id="_226" class="fil228" points="682.8,588.24 59.02,1097 42.33,1079.16 "/>
     <polygon id="_227" class="fil229" points="682.8,588.24 45.67,1082.73 29.46,1064.51 "/>
     <polygon id="_228" class="fil230" points="682.8,588.24 32.71,1068.15 16.99,1049.58 "/>
     <polygon id="_229" class="fil231" points="682.8,588.24 20.13,1053.29 4.92,1034.37 "/>
     <polygon id="_230" class="fil232" points="682.8,588.24 7.96,1038.15 -6.75,1018.89 "/>
     <polygon id="_231" class="fil233" points="682.8,588.24 -3.81,1022.74 -18,1003.15 "/>
     <polygon id="_232" class="fil234" points="682.8,588.24 -15.16,1007.07 -28.83,987.16 "/>
     <polygon id="_233" class="fil235" points="682.8,588.24 -26.1,991.14 -39.23,970.93 "/>
     <polygon id="_234" class="fil236" points="682.8,588.24 -36.6,974.97 -49.19,954.47 "/>
     <polygon id="_235" class="fil237" points="682.8,588.24 -46.67,958.57 -58.72,937.79 "/>
     <polygon id="_236" class="fil238" points="682.8,588.24 -56.31,941.95 -67.79,920.9 "/>
     <polygon id="_237" class="fil239" points="682.8,588.24 -65.5,925.11 -76.42,903.81 "/>
     <polygon id="_238" class="fil240" points="682.8,588.24 -74.23,908.07 -84.59,886.53 "/>
     <polygon id="_239" class="fil241" points="682.8,588.24 -82.52,890.84 -92.29,869.07 "/>
     <polygon id="_240" class="fil242" points="682.8,588.24 -90.34,873.42 -99.53,851.44 "/>
     <polygon id="_241" class="fil243" points="682.8,588.24 -97.69,855.84 -106.3,833.65 "/>
     <polygon id="_242" class="fil244" points="682.8,588.24 -104.58,838.09 -112.59,815.71 "/>
     <polygon id="_243" class="fil245" points="682.8,588.24 -110.99,820.19 -118.4,797.64 "/>
     <polygon id="_244" class="fil246" points="682.8,588.24 -116.92,802.15 -123.73,779.44 "/>
     <polygon id="_245" class="fil247" points="682.8,588.24 -122.37,783.98 -128.58,761.13 "/>
     <polygon id="_246" class="fil248" points="682.8,588.24 -127.33,765.7 -132.93,742.71 "/>
     <polygon id="_247" class="fil249" points="682.8,588.24 -131.81,747.31 -136.8,724.19 "/>
     <polygon id="_248" class="fil250" points="682.8,588.24 -135.8,728.82 -140.17,705.6 "/>
     <polygon id="_249" class="fil251" points="682.8,588.24 -139.29,710.25 -143.04,686.94 "/>
     <polygon id="_250" class="fil252" points="682.8,588.24 -142.29,691.6 -145.42,668.21 "/>
     <polygon id="_251" class="fil253" points="682.8,588.24 -144.79,672.89 -147.3,649.44 "/>
     <polygon id="_252" class="fil254" points="682.8,588.24 -146.8,654.13 -148.68,630.63 "/>
     <polygon id="_253" class="fil255" points="682.8,588.24 -148.3,635.33 -149.55,611.8 "/>
     <polygon id="_254" class="fil256" points="682.8,588.24 -149.3,616.5 -149.93,592.95 "/>
     <polygon id="_255" class="fil257" points="682.8,588.24 -149.8,597.66 -149.8,578.81 "/>
    </g>
   </g>
  </g>
 </g>
</svg>
