<?xml version="1.0" encoding="UTF-8"?>
<!DOCTYPE svg PUBLIC "-//W3C//DTD SVG 1.1//EN" "http://www.w3.org/Graphics/SVG/1.1/DTD/svg11.dtd">
<!-- Creator: CorelDRAW 2021 (64-Bit) -->
<svg xmlns="http://www.w3.org/2000/svg" xml:space="preserve" width="2in" height="2in" version="1.1" style="shape-rendering:geometricPrecision; text-rendering:geometricPrecision; image-rendering:optimizeQuality; fill-rule:evenodd; clip-rule:evenodd"
viewBox="0 0 2000 2000"
 xmlns:xlink="http://www.w3.org/1999/xlink"
 xmlns:xodm="http://www.corel.com/coreldraw/odm/2003">
 <defs>
  <style type="text/css">
   <![CDATA[
    .fil1 {fill:#0274B3}
    .fil0 {fill:white}
   ]]>
  </style>
 </defs>
 <g id="Layer_x0020_1">
  <metadata id="CorelCorpID_0Corel-Layer"/>
  <path class="fil0" d="M298.95 1704.18l-1.35 -953.89 294.23 0.3 -1.17 950.99c-32.88,0.12 -282.02,-3.81 -291.71,2.61zm761.77 -821.06c9.37,-5.57 61.96,-70.92 85.8,-89.86 55.89,-44.4 129.55,-65.8 206.17,-65.57 61.94,0.19 132.06,10.73 183.23,37.76 25.99,13.73 64.55,41.42 78.35,60.09 2.24,3.02 2.87,4.83 5.26,7.71 89.51,108.12 84.63,285.33 84.63,425.91l0.03 443.23 -294.67 -0.13c-4.06,-22.41 -1.34,-398.95 -1.34,-432.63 0,-68.42 3.32,-134.84 -19.17,-197.55 -35.67,-99.44 -155,-104.51 -233.56,-63.45 -81.72,42.71 -81.96,170.6 -81.96,250.52 0,32.87 2.62,420.46 -1.14,442.43l-292.44 -0.02 1.26 -950.33 279.05 0.05 0.5 131.83zm-636.65 -604.59c22.65,-4.26 50.37,-1.55 72.12,5.91 27.92,9.57 61.21,29.76 79.04,51.29 21.03,25.39 34.75,54.45 39.59,87.66 8.7,59.78 -9.64,90.67 -36.33,131.55 -5.63,8.62 -32.32,32.21 -46.31,39.82 -21.77,11.85 -34.81,16.93 -60.99,21.9 -59.75,11.34 -130.22,-22.12 -154.23,-56.63 -5.57,-8 -11.23,-14.54 -17.74,-23.79 -36.38,-51.71 -33.57,-138.45 14.45,-196.43 26.32,-31.78 52.67,-50.41 110.41,-61.28z"/>
  <path class="fil1" d="M298.95 1704.18l-1.35 -953.89 294.23 0.3 -1.17 950.99c-32.88,0.12 -282.02,-3.81 -291.71,2.61zm761.77 -821.06c9.37,-5.57 61.96,-70.92 85.8,-89.86 55.89,-44.4 129.55,-65.8 206.17,-65.57 61.94,0.19 132.06,10.73 183.23,37.76 25.99,13.73 64.55,41.42 78.35,60.09 2.24,3.02 2.87,4.83 5.26,7.71 89.51,108.12 84.63,285.33 84.63,425.91l0.03 443.23 -294.67 -0.13c-4.06,-22.41 -1.34,-398.95 -1.34,-432.63 0,-68.42 3.32,-134.84 -19.17,-197.55 -35.67,-99.44 -155,-104.51 -233.56,-63.45 -81.72,42.71 -81.96,170.6 -81.96,250.52 0,32.87 2.62,420.46 -1.14,442.43l-292.44 -0.02 1.26 -950.33 279.05 0.05 0.5 131.83zm-636.65 -604.59c22.65,-4.26 50.37,-1.55 72.12,5.91 27.92,9.57 61.21,29.76 79.04,51.29 21.03,25.39 34.75,54.45 39.59,87.66 8.7,59.78 -9.64,90.67 -36.33,131.55 -5.63,8.62 -32.32,32.21 -46.31,39.82 -21.77,11.85 -34.81,16.93 -60.99,21.9 -59.75,11.34 -130.22,-22.12 -154.23,-56.63 -5.57,-8 -11.23,-14.54 -17.74,-23.79 -36.38,-51.71 -33.57,-138.45 14.45,-196.43 26.32,-31.78 52.67,-50.41 110.41,-61.28zm-424.07 -142.41l0 1725.13c0,72.33 66.34,138.74 143.98,138.74l1712.05 0c75.52,0 143.98,-64.52 143.98,-138.74l0 -1725.13c0,-28.75 -11,-54.41 -26.11,-75.98 -5.17,-7.37 -11.09,-12.22 -17.74,-18.91 -22.59,-22.72 -55.89,-41.24 -100.12,-41.24l-1717.28 0c-68.39,0 -138.74,63.17 -138.74,136.13z"/>
 </g>
</svg>
